<svg xmlns="http://www.w3.org/2000/svg" viewBox="0 0 88.895 55.389">
    <path fill="#fff" d="M62.33 46.974c-1.786 0-3.03-.934-3.03-1.771s1.244-1.771 3.03-1.771c.737 0 1.421.157 1.978.455l1.052.562v.754c0 .837-1.245 1.771-3.03 1.771zm14.701-1.726c-1.785 0-3.029-.934-3.029-1.771s1.244-1.771 3.029-1.771c.737 0 1.423.157 1.981.455l1.048.559v.757c0 .838-1.244 1.771-3.029 1.771zm-9.044-22.249l12.073-2.458v2.945l-12.073 2.458v-2.945z"/>
    <path fill="#444" d="M81.278 17.742L66.453 20.76l-.348.139a1.18 1.18 0 0 0-.219.169l-.123.132a1.1 1.1 0 0 0-.133.222l-.071.16a1.362 1.362 0 0 0-.072.434v19.665c-.908-.485-2.001-.75-3.157-.75-3.101 0-5.529 1.876-5.529 4.271s2.429 4.271 5.529 4.271c3.101 0 5.529-1.876 5.529-4.271v-16.68l12.328-2.51v13.944c-.909-.485-2.001-.75-3.157-.75-3.101 0-5.529 1.876-5.529 4.271s2.429 4.271 5.529 4.271c3.101 0 5.529-1.876 5.529-4.271V19.024a1.35 1.35 0 0 0-.087-.476l-.062-.126a1.206 1.206 0 0 0-.198-.296l-.013.011-.122-.13a1.073 1.073 0 0 0-.283-.171l-.516-.094z"/>
    <path fill="#fff" d="M47.764 29.907c-1.786 0-3.03-.934-3.03-1.771 0-.837 1.244-1.771 3.03-1.771.736 0 1.421.158 1.979.456l1.05.559v.756c0 .837-1.244 1.771-3.029 1.771z"/>
    <path fill="#444" d="M52.109 5.443c-.074 0-.148.007-.222.023l-.348.139a1.184 1.184 0 0 0-.226.177l-.116.124a1.122 1.122 0 0 0-.135.226l-.068.155c-.05.143-.074.29-.074.435v17.892c-.908-.484-2-.749-3.156-.749-3.101 0-5.53 1.876-5.53 4.271s2.429 4.272 5.53 4.272c3.101 0 5.53-1.877 5.53-4.272l.002-21.414c0-.353-.136-.692-.373-.933l-.003-.003a1.149 1.149 0 0 0-.811-.343z"/>
    <path d="M27.876 13.568L14.081 24.389H7.849c-.837 0-1.515.678-1.515 1.515v11.735c0 .837.678 1.515 1.515 1.515h6.865l13.162 10.325c1.426 1.119 3.514.103 3.514-1.71V15.278c0-1.813-2.088-2.829-3.514-1.71z" fill="#fff" stroke="#444" stroke-width="3" stroke-miterlimit="10"/>
</svg>
