<?xml version="1.0" standalone="no"?>
<!DOCTYPE svg PUBLIC "-//W3C//DTD SVG 20010904//EN"
 "http://www.w3.org/TR/2001/REC-SVG-20010904/DTD/svg10.dtd">
<svg version="1.0" xmlns="http://www.w3.org/2000/svg"
 width="1024.000000pt" height="1024.000000pt" viewBox="0 0 1024.000000 1024.000000"
 preserveAspectRatio="xMidYMid meet">
<metadata>
Created by potrace 1.11, written by Peter Selinger 2001-2013
</metadata>
<g transform="translate(0.000000,1024.000000) scale(0.100000,-0.100000)"
fill="#000000" stroke="none">
<path d="M7842 9031 c-71 -24 -114 -62 -155 -136 -17 -32 -22 -56 -22 -120 0
-98 18 -132 127 -246 289 -300 551 -647 725 -959 11 -19 34 -61 52 -93 124
-223 237 -476 327 -732 24 -69 92 -286 99 -315 2 -8 12 -52 24 -96 23 -89 66
-287 76 -344 3 -19 7 -46 10 -60 2 -14 7 -45 10 -70 3 -25 8 -52 10 -60 2 -8
7 -44 10 -80 3 -36 7 -76 10 -90 27 -156 27 -781 0 -1020 -30 -262 -67 -462
-140 -760 -22 -91 -138 -441 -170 -515 -7 -16 -36 -86 -65 -155 -72 -171 -209
-437 -313 -606 -74 -121 -223 -341 -271 -401 -198 -249 -199 -250 -331 -391
-139 -148 -155 -167 -171 -200 -25 -53 -29 -141 -10 -199 54 -163 252 -235
398 -145 51 32 264 257 403 427 31 39 104 133 161 210 57 77 107 145 112 150
31 41 184 284 243 386 230 397 454 952 555 1372 2 9 6 27 10 40 3 12 7 33 10
47 3 14 9 41 14 60 11 43 46 220 54 275 4 23 8 50 10 61 2 12 7 45 11 74 4 29
8 60 10 69 1 9 6 43 10 76 3 33 8 74 10 90 27 226 27 903 -1 1100 -2 17 -6 50
-8 75 -3 25 -9 74 -15 110 -6 36 -13 81 -15 100 -5 36 -13 86 -21 130 -3 14
-7 41 -10 60 -10 62 -66 303 -87 375 -11 38 -22 81 -25 95 -6 36 -114 357
-158 470 -93 242 -220 508 -352 738 -60 106 -219 360 -233 372 -3 3 -14 18
-24 35 -11 16 -23 34 -28 40 -4 5 -38 51 -74 100 -147 198 -350 433 -503 582
-85 83 -186 108 -289 74z"/>
<path d="M4550 8414 c-82 -24 -84 -26 -425 -294 -115 -91 -222 -174 -236 -185
-15 -11 -76 -59 -135 -106 -60 -47 -269 -211 -464 -364 -195 -153 -456 -358
-579 -454 -264 -208 -332 -261 -387 -304 -23 -18 -113 -88 -200 -156 -88 -68
-165 -129 -173 -135 -9 -7 -203 -11 -600 -11 -585 -1 -586 -1 -636 -24 -84
-37 -142 -106 -160 -190 -8 -36 -9 -2192 -1 -2227 15 -72 82 -151 156 -187 45
-22 50 -22 694 -24 l648 -2 62 -48 c116 -90 261 -204 277 -217 9 -7 47 -37 85
-66 38 -30 114 -89 169 -132 55 -44 116 -91 134 -106 19 -15 71 -56 115 -91
45 -35 99 -77 121 -94 22 -18 47 -37 55 -44 15 -12 411 -322 698 -546 79 -62
149 -117 155 -122 11 -10 241 -190 448 -351 123 -96 154 -108 279 -109 99 0
109 2 170 32 72 36 115 73 158 136 27 39 38 66 60 142 10 39 9 5948 -2 5995
-48 205 -285 343 -486 284z"/>
<path d="M6949 8166 c-87 -34 -143 -91 -172 -176 -32 -96 -3 -201 80 -288 178
-185 334 -376 439 -537 21 -33 42 -61 47 -63 4 -2 7 -7 7 -11 0 -4 23 -46 51
-92 248 -413 426 -932 485 -1413 3 -22 7 -54 9 -71 24 -173 24 -617 0 -780 -2
-16 -9 -68 -15 -115 -5 -47 -12 -96 -15 -110 -3 -14 -8 -38 -11 -55 -86 -479
-280 -956 -558 -1376 -32 -48 -157 -221 -166 -229 -3 -3 -38 -45 -78 -93 -41
-48 -107 -123 -147 -166 -101 -106 -111 -119 -129 -180 -51 -173 74 -341 257
-343 117 -2 169 38 407 307 201 229 424 563 573 861 146 291 296 722 351 1004
3 14 7 36 11 50 4 22 11 57 29 170 4 26 12 85 22 160 3 25 7 56 10 70 22 137
22 677 -1 860 -2 19 -7 60 -10 90 -4 30 -9 64 -10 75 -2 11 -7 40 -10 65 -3
25 -8 56 -10 70 -3 14 -7 34 -9 45 -20 102 -42 198 -67 295 -17 63 -32 120
-33 125 -15 67 -124 366 -168 463 -15 34 -28 65 -28 68 0 7 -118 242 -152 304
-64 117 -87 154 -164 272 -202 310 -517 679 -621 728 -57 27 -156 35 -204 16z"/>
<path d="M6115 7377 c-60 -24 -97 -53 -130 -102 -86 -126 -62 -252 74 -393
251 -261 450 -588 567 -935 32 -95 76 -254 88 -322 57 -305 64 -599 20 -875
-8 -52 -17 -111 -20 -130 -33 -204 -152 -526 -277 -745 -120 -212 -233 -362
-431 -568 -44 -47 -69 -112 -69 -182 1 -188 170 -309 358 -256 42 12 65 30
142 107 306 310 558 722 705 1154 52 153 116 428 133 575 4 28 8 61 11 75 21
130 20 581 -2 693 -2 11 -6 45 -10 76 -5 46 -52 287 -68 353 -107 422 -328
853 -611 1193 -109 131 -227 249 -270 270 -48 23 -166 30 -210 12z"/>
</g>
</svg>
