<svg xmlns="http://www.w3.org/2000/svg" viewBox="0 0 180 66.674">
    <path fill="#fff" d="M45.663 47.061a.364.364 0 0 1 .341-.265h.303c.132 0 .284.095.322.208l3.752 10.442h.095l3.696-10.442c.038-.113.189-.208.322-.208h.303c.151 0 .303.113.341.265l2.445 12.735c.057.266-.057.455-.341.455h-.758c-.152 0-.303-.133-.341-.266l-1.687-9.76h-.076l-3.487 10.007c-.038.113-.208.208-.322.208h-.341c-.114 0-.284-.095-.322-.208l-3.525-10.007h-.076l-1.649 9.76c-.019.133-.189.266-.341.266h-.758c-.284 0-.398-.189-.341-.455l2.445-12.735zm24.076.284c0-.189.171-.359.36-.359h.72c.208 0 .36.17.36.359v7.979c0 2.161 1.346 3.771 3.563 3.771 2.236 0 3.601-1.572 3.601-3.733v-8.017a.36.36 0 0 1 .36-.359h.72c.189 0 .36.17.36.359v8.093c0 2.881-2.047 5.003-5.041 5.003-2.976 0-5.003-2.122-5.003-5.003v-8.093zm22.295 10.916l.284-.359c.189-.247.341-.342.606-.114.133.114 1.572 1.384 3.26 1.384 1.535 0 2.539-.967 2.539-2.16 0-1.309-1.137-2.066-3.316-2.995-2.085-.891-3.336-1.687-3.336-3.847 0-1.289 1.023-3.373 4.037-3.373 1.857 0 3.24.966 3.24.966.114.058.322.284.114.645l-.189.322c-.151.266-.36.266-.663.095-.796-.474-1.46-.758-2.521-.758-2.009 0-2.615 1.288-2.615 2.084 0 1.346.966 1.934 2.558 2.597 2.559 1.042 4.208 2.009 4.208 4.207 0 1.972-1.877 3.487-4.094 3.487-2.236 0-3.753-1.308-3.999-1.535-.151-.134-.378-.304-.113-.646zm20.304-10.916c0-.189.171-.359.36-.359h.758c.189 0 .36.17.36.359v12.546c0 .189-.171.36-.36.36h-.758a.373.373 0 0 1-.36-.36V47.345zm20.604-.549c1.914 0 3.297.663 4.586 1.762.151.152.171.379.019.531l-.511.512c-.152.189-.304.17-.493-.02-.985-.853-2.236-1.421-3.62-1.421-2.994 0-5.287 2.521-5.287 5.458 0 2.918 2.293 5.438 5.287 5.438 1.649 0 2.615-.568 3.62-1.421.189-.151.341-.133.493.019l.436.437c.151.113.113.379-.02.512-1.25 1.137-2.823 1.838-4.51 1.838-3.79 0-6.842-3.014-6.842-6.804s3.052-6.841 6.842-6.841zm37.835-17.675c-1.951 0-3.621 1.512-3.621 3.93 0 2.38 1.67 3.833 3.621 3.833s3.62-1.453 3.62-3.833c0-2.418-1.669-3.93-3.62-3.93m-13.446-5.754c0-.53.34-1.023 1.744-1.023 1.288 0 2.426.42 3.337.757 1.291.493 2.201.304 2.771-.906l.453-.913c.568-1.18.416-2.237-.759-2.805a12.807 12.807 0 0 0-5.535-1.254c-4.511 0-8.12 2.161-8.12 6.182 0 6.865 9.142 5.768 9.142 8.046 0 .601-.454 1.096-1.783 1.096-1.554 0-2.768-.608-3.715-1.026l-.091-.038c-1.168-.658-2.577-1.37-4.238-1.37-1.606 0-3.042.661-4.265 1.244-.961.467-2.161.852-3.43.852-2.084 0-4.058-1.104-4.55-3.494h10.28c1.291 0 2.199-1.139 2.199-2.16 0-5.235-3.222-9.333-9.028-9.333-5.356 0-8.954 3.243-9.911 7.738h-.432c-.597-4.446-3.723-7.738-8.923-7.738-4.015 0-7.037 1.826-8.703 4.632-1.953-2.898-5.426-4.643-9.437-4.643-.223 0-.444.01-.668.017L98.334 3.227c-.5-1.269-1.435-1.679-2.702-1.175l-2.296.905c-1.269.499-1.677 1.435-1.175 2.708l4.748 12.47c-.321-.294-.8-.459-1.425-.459h-2.502c-1.288 0-2.01.613-2.275 1.857l-2.049 9.674c-.229 1.067-.264 2.051-.264 2.051h-.078s-.039-.984-.303-2.051l-2.277-9.71c-.265-1.208-1.025-1.821-2.273-1.821h-1.898c-1.251 0-2.008.613-2.276 1.821l-2.278 9.71c-.264 1.067-.337 2.051-.337 2.051h-.078s0-.984-.228-2.051l-2.043-9.674c-.269-1.244-.99-1.857-2.277-1.857h-2.582c-1.479 0-2.162.915-1.783 2.353l4.325 15.401c.34 1.211 1.097 1.782 2.317 1.782h3.714c1.251 0 2.01-.608 2.313-1.819l1.744-7.21c.267-1.059.382-2.086.382-2.086h.072s.116 1.027.382 2.086l1.743 7.21c.303 1.212 1.062 1.819 2.315 1.819h3.641c1.213 0 1.968-.571 2.311-1.782l1.127-4.008c-.5-1.177-.768-2.499-.768-3.932 0-3.481 1.581-6.316 4.065-8.123a3.084 3.084 0 0 1-.098.662L94.07 31.422c1.614 3.854 5.603 6.233 10.306 6.233 4.046 0 7.555-1.768 9.487-4.714 1.713 2.751 4.817 4.727 9.182 4.727 2.996 0 5.309-.947 6.714-1.744 1.135-.649 1.327-1.67.718-2.845l-.531-.988c-.641-1.216-1.552-1.366-2.807-.798-.984.497-2.235.916-3.563.916-2.085 0-4.057-1.104-4.551-3.494h12.632c.568 4.708 4.255 8.954 10.654 8.954 2.918 0 5.182-.903 6.599-1.684 0 0 1.677-.876 3.401.105 1.377.75 3.443 1.578 6.117 1.578 5.006 0 8.042-2.769 8.042-6.413.001-6.785-9.139-5.648-9.139-7.888zm-15.742-1.329c1.669 0 2.693 1.33 2.693 2.923h-5.839c.34-1.556 1.25-2.923 3.146-2.923zm-37.213 10.153c-2.39 0-4.437-1.779-4.437-4.701 0-2.959 2.047-4.816 4.437-4.816 2.388 0 4.438 1.857 4.438 4.816 0 2.922-2.05 4.701-4.438 4.701zm17.532-7.23h-2.733c.344-1.556 1.255-2.923 3.15-2.923 1.668 0 2.693 1.33 2.693 2.923h-3.11zM12.184 17.642c0-1.064.874-1.896 2.958-1.896 1.779 0 3.034.645 4.283 1.252 1.066.527 2.087.759 2.847-.722l.912-1.781c.569-1.101.454-2.049-.643-2.845-1.292-.912-4.175-2.009-7.323-2.009-5.498 0-9.672 3.298-9.672 8.305 0 8.495 11.985 7.888 11.985 11.718 0 1.063-.911 1.897-2.885 1.897-2.348 0-4.056-1.214-4.926-1.671-1.257-.681-2.128-.602-2.886.497L5.66 32.09c-.987 1.406-.42 2.237.379 2.885 1.439 1.139 4.818 2.694 8.607 2.694 6.109 0 9.523-3.91 9.523-8.462 0-8.573-11.985-7.625-11.985-11.565m55.388 7.544v9.94c0 1.366-.72 2.087-2.086 2.087h-1.822c-1.364 0-2.084-.685-2.084-2.125v-.154c0-.226.038-.375.038-.375h-.074s-1.86 3.11-5.769 3.11c-3.753 0-6.367-2.581-6.367-5.957 0-5.234 6.219-6.672 11.036-6.672h.567v-.343c0-1.632-1.327-2.161-2.768-2.161-1.251 0-2.541.415-3.526.869-1.256.533-2.201.305-2.809-.908l-.454-.949c-.57-1.175-.338-2.199.835-2.806 1.479-.683 3.753-1.519 6.563-1.519 5.381 0 8.72 2.998 8.72 7.963m-6.486 3.608h-.606c-2.013 0-4.59.529-4.59 2.31 0 .908.642 1.671 1.859 1.671 1.894 0 3.336-1.862 3.336-3.452l.001-.529z"/>
    <path fill="#fff" d="M50.503 21.698v-2.122c0-1.368-.454-2.09-1.783-2.09-2.465 0-4.549 2.695-5.192 4.709h-.079s.079-.571.079-1.215v-1.214c0-1.368-.723-2.089-2.087-2.089h-2.125c-1.368 0-2.087.721-2.087 2.089v11.603h-2.964a8.6 8.6 0 0 0-.485-.076c-1.175-.153-2.276-.795-2.276-2.466v-5.915h2.046c1.329 0 2.052-.723 2.052-2.088v-.948c0-1.365-.723-2.085-2.089-2.085h-2.009v-3.528c0-1.366-.723-2.088-2.088-2.088h-2.197c-1.365 0-2.089.723-2.089 2.088v3.528h-.721c-1.361 0-2.087.719-2.087 2.085v.948c0 1.365.726 2.088 2.051 2.088h.57v7.128c0 5.759 5.262 7.112 8.159 7.13v.005h.069l3.092.023 3.052.014h2.386c1.369 0 2.09-.722 2.09-2.087v-5.501c0-3.184 1.518-5.838 4.625-5.838 1.365 0 2.087-.722 2.087-2.088m122.586-9.007a3.589 3.589 0 0 1 3.576 3.579 3.576 3.576 0 0 1-3.576 3.565 3.567 3.567 0 0 1-3.568-3.565 3.58 3.58 0 0 1 3.568-3.579m0 6.55a2.97 2.97 0 0 0 2.972-2.971 2.961 2.961 0 0 0-2.972-2.971 2.968 2.968 0 0 0-2.974 2.971 2.977 2.977 0 0 0 2.974 2.971m-1.242-4.611a.19.19 0 0 1 .19-.19h1.411c.616 0 1.218.371 1.218 1.119 0 .74-.524 1.01-.801 1.079.199.388.398.785.594 1.173.069.119-.029.269-.167.269h-.337c-.081 0-.154-.08-.182-.142l-.557-1.24h-.736v1.195a.186.186 0 0 1-.187.187h-.257a.187.187 0 0 1-.19-.187V14.63h.001zm1.601 1.491c.367 0 .597-.255.597-.562 0-.34-.23-.571-.597-.571h-.967v1.133h.967z"/>
</svg>
